# xmcd CD database file
#
# Track frame offsets:
#	150
#	14272
#	30227
#	44190
#	55975
#	67225
#	82600
#	92275
#	106475
#	123235
#	136822
#	159895
#	173577
#	184682
#	197235
#	221225
#
# Disc length: 3134 seconds
#
# Revision: 0
# Processed by: cddbd v1.5.2PL0 Copyright (c) Steve Scherf et al.
# Submitted via: CDex 1.70beta2
#
DISCID=d00c3c10
DTITLE=Lowell Fulson - 21Blues Giants
DYEAR=1995
DGENRE=Blues
TTITLE0=Tramp
TTITLE1=Black Nights
TTITLE2=Too Many Drivers
TTITLE3=Shattered Dreams
TTITLE4=Talkin' Woman
TTITLE5=No Hard Feelings 
TTITLE6=Little Angel
TTITLE7=Make A Little Love
TTITLE8=Year Of 29
TTITLE9=Everyday I Have The Blues
TTITLE10=I Wanna Spend Chrismas With You
TTITLE11=I'm A Drifter
TTITLE12=Let's Go Get Stone
TTITLE13=Feel So Bad
TTITLE14=Blues Pain
TTITLE15=What The Heck
EXTD=YEAR: 1995
EXTT0=
EXTT1=
EXTT2=
EXTT3=
EXTT4=
EXTT5=
EXTT6=
EXTT7=
EXTT8=
EXTT9=
EXTT10=
EXTT11=
EXTT12=
EXTT13=
EXTT14=
EXTT15=
PLAYORDER=
